<svg width="62" height="57" viewBox="0 0 62 57" fill="none" xmlns="http://www.w3.org/2000/svg">
<rect x="13.7413" y="22.3436" width="35.2122" height="17.8749" rx="5" fill="#C6AAF6"/>
<path d="M34.8475 33.5155C34.2918 36.1488 33.0451 37.9842 31.5946 37.9842C30.1442 37.984 28.8973 36.1486 28.3417 33.5155H34.8475Z" fill="white"/>
<path d="M18.9344 28.0549C19.5675 26.7952 21.0254 25.8829 22.7397 25.8252C24.4537 25.7675 25.9438 26.5805 26.6244 27.7958L18.9344 28.0549Z" fill="white"/>
<ellipse cx="24.009" cy="28.688" rx="2.10585" ry="2.59346" fill="white"/>
<path d="M43.761 28.0549C43.1279 26.7952 41.67 25.8829 39.9558 25.8252C38.2417 25.7674 36.7516 26.5805 36.071 27.7958L43.761 28.0549Z" fill="white"/>
<ellipse cx="2.10583" cy="2.59346" rx="2.10583" ry="2.59346" transform="matrix(-1 0 0 1 40.7923 26.0945)" fill="white"/>
<path d="M7.15723 22.3436C7.64718 22.3437 8.12562 22.4052 8.58789 22.5224V40.039C8.12555 40.1561 7.64725 40.2186 7.15723 40.2186C3.20456 40.2186 1.93987e-05 36.2171 0 31.2811C0 26.3451 3.20455 22.3436 7.15723 22.3436Z" fill="#C6AAF6"/>
<path d="M54.6788 22.3436C54.1889 22.3437 53.7105 22.4052 53.2482 22.5224V40.039C53.7105 40.1561 54.1888 40.2186 54.6788 40.2186C58.6315 40.2186 61.8361 36.2171 61.8361 31.2811C61.8361 26.3451 58.6315 22.3436 54.6788 22.3436Z" fill="#C6AAF6"/>
<ellipse cx="22.7591" cy="50.8318" rx="4.72359" ry="2.79295" fill="#C6AAF6"/>
<path d="M23.6179 50.2732C23.6179 50.2732 14.6522 51.9992 11.4055 48.064C8.1589 44.1287 8.1589 38.5428 8.1589 38.5428" stroke="#C6AAF6" stroke-width="0.8"/>
<line x1="31.2769" y1="22.3436" x2="31.2769" y2="4.46873" stroke="#C6AAF6"/>
<ellipse cx="31.3475" cy="2.79295" rx="2.14709" ry="2.79295" fill="#C6AAF6"/>
<ellipse cx="31.3475" cy="22.9022" rx="3.00592" ry="2.79295" fill="#C6AAF6"/>
<path d="M7.72951 24.578C7.72951 4.02327 54.1066 6.44148 54.1066 24.578" stroke="#C6AAF6"/>
</svg>
