<svg width="62" height="57" viewBox="0 0 62 57" fill="none" xmlns="http://www.w3.org/2000/svg">
<rect x="14.2413" y="22.8436" width="34.2122" height="16.8749" rx="4.5" fill="#CF6B82" stroke="#CF6B82"/>
<path d="M34.8475 33.5154C34.2918 36.1487 33.0451 37.9842 31.5946 37.9842C30.1442 37.9839 28.8973 36.1486 28.3417 33.5154H34.8475Z" fill="white"/>
<path d="M18.9344 28.055C19.5675 26.7953 21.0254 25.883 22.7397 25.8252C24.4537 25.7675 25.9438 26.5805 26.6244 27.7958L18.9344 28.055Z" fill="white"/>
<path d="M24.0086 26.5945C24.8032 26.5945 25.615 27.4298 25.615 28.6883C25.6149 29.9467 24.8031 30.7811 24.0086 30.7811C23.2141 30.7808 22.4032 29.9465 22.4031 28.6883C22.4031 27.43 23.2141 26.5948 24.0086 26.5945Z" fill="white" stroke="white"/>
<path d="M43.761 28.055C43.1279 26.7952 41.67 25.883 39.9558 25.8252C38.2417 25.7675 36.7516 26.5805 36.071 27.7958L43.761 28.055Z" fill="white"/>
<path d="M38.6868 26.5945C37.8922 26.5945 37.0804 27.4298 37.0804 28.6883C37.0805 29.9467 37.8923 30.7811 38.6868 30.7811C39.4812 30.7808 40.2921 29.9465 40.2923 28.6883C40.2923 27.43 39.4813 26.5948 38.6868 26.5945Z" fill="white" stroke="white"/>
<path d="M7.15723 22.3436C7.64718 22.3437 8.12562 22.4052 8.58789 22.5223V40.0389C8.12555 40.1561 7.64725 40.2186 7.15723 40.2186C3.20456 40.2186 1.93987e-05 36.2171 0 31.2811C0 26.3451 3.20455 22.3436 7.15723 22.3436Z" fill="#CF6B82"/>
<path d="M54.6788 22.3436C54.1889 22.3437 53.7105 22.4052 53.2482 22.5223V40.0389C53.7105 40.1561 54.1888 40.2186 54.6788 40.2186C58.6315 40.2186 61.8361 36.2171 61.8361 31.2811C61.8361 26.3451 58.6315 22.3436 54.6788 22.3436Z" fill="#CF6B82"/>
<path d="M22.7592 48.5388C23.9897 48.5388 25.0799 48.8344 25.8451 49.2869C26.6214 49.7459 26.9828 50.3088 26.9828 50.8318C26.9828 51.3547 26.6214 51.9177 25.8451 52.3767C25.0799 52.8292 23.9897 53.1247 22.7592 53.1248C21.5285 53.1248 20.4384 52.8292 19.6732 52.3767C18.8969 51.9177 18.5355 51.3548 18.5355 50.8318C18.5355 50.3088 18.8969 49.7459 19.6732 49.2869C20.4384 48.8344 21.5285 48.5388 22.7592 48.5388Z" fill="#CF6B82" stroke="#CF6B82"/>
<path d="M23.6179 50.2732C23.6179 50.2732 14.6522 51.9992 11.4055 48.0639C8.1589 44.1287 8.1589 38.5427 8.1589 38.5427" stroke="#CF6B82" stroke-width="0.8"/>
<line x1="31.2769" y1="22.3436" x2="31.2769" y2="4.46872" stroke="#CF6B82"/>
<path d="M31.3478 0.5C31.7532 0.500131 32.1537 0.712958 32.4689 1.12305C32.7847 1.5338 32.9943 2.12237 32.9943 2.79297C32.9943 3.46356 32.7847 4.05214 32.4689 4.46289C32.1537 4.87297 31.7532 5.08581 31.3478 5.08594C30.9423 5.08594 30.5411 4.87311 30.2258 4.46289C29.91 4.05215 29.7004 3.46351 29.7004 2.79297C29.7004 2.12243 29.91 1.53379 30.2258 1.12305C30.5411 0.712831 30.9423 0.5 31.3478 0.5Z" fill="#CF6B82" stroke="#CF6B82"/>
<path d="M31.3474 20.6093C32.7666 20.6093 33.8533 21.6698 33.8533 22.9022C33.8532 24.1346 32.7666 25.1952 31.3474 25.1952C29.9282 25.1952 28.8415 24.1346 28.8415 22.9022C28.8415 21.6698 29.9282 20.6093 31.3474 20.6093Z" fill="#CF6B82" stroke="#CF6B82"/>
<path d="M7.72951 24.578C7.72951 4.02326 54.1066 6.44146 54.1066 24.578" stroke="#CF6B82"/>
</svg>
